<svg width="417" height="441" viewBox="0 0 417 441" fill="none" xmlns="http://www.w3.org/2000/svg">
<path d="M191.871 3.28237C191.871 3.28237 40.6448 65.0505 24.4421 71.7645C8.23928 78.4784 0.137857 94.5918 0.137857 110.705C0.137857 126.819 -12.0143 337.077 191.871 438.737C191.871 438.737 210.375 443.829 224.414 438.737C238.454 433.645 416.684 347.707 416.684 110.034C416.684 110.034 416.684 85.8637 388.329 72.4358C359.974 59.0079 222.883 3.28237 222.883 3.28237C222.883 3.28237 206.048 -4.10297 191.871 3.28237Z" fill="url(#paint0_radial_1115_1685)"/>
<path d="M193.619 25.0588C193.619 25.0588 58.4379 80.6346 43.9542 86.6755C29.4706 92.7163 22.2287 107.214 22.2287 121.712C22.2287 136.211 11.3659 325.391 193.619 416.859C193.619 416.859 210.16 421.44 222.709 416.859C235.259 412.277 394.579 334.954 394.579 121.108C394.579 121.108 394.579 99.3613 369.233 87.2795C343.886 75.1978 221.341 25.0588 221.341 25.0588C221.341 25.0588 206.292 18.4138 193.619 25.0588Z" fill="url(#paint1_radial_1115_1685)"/>
<mask id="mask0_1115_1685" style="mask-type:luminance" maskUnits="userSpaceOnUse" x="91" y="150" width="95" height="104">
<path d="M185.992 150H91V253.417H185.992V150Z" fill="white"/>
</mask>
<g mask="url(#mask0_1115_1685)">
<mask id="mask1_1115_1685" style="mask-type:luminance" maskUnits="userSpaceOnUse" x="105" y="161" width="67" height="67">
<path d="M171.641 161.681H105.309V227.664H171.641V161.681Z" fill="white"/>
</mask>
<g mask="url(#mask1_1115_1685)">
<path d="M145.089 192.115C145.089 192.115 144.09 206.685 134.016 210.556C123.942 214.427 114.821 207.242 114.821 207.242C136.909 210.072 145.089 192.115 145.089 192.115ZM138.465 161.691C134.112 161.69 129.801 162.546 125.779 164.211C121.756 165.876 118.102 168.317 115.023 171.394C111.944 174.471 109.501 178.125 107.835 182.147C106.168 186.168 105.31 190.478 105.309 194.832C105.309 195.872 105.359 196.896 105.46 197.902C105.689 199.717 108.67 218.881 130.629 216.399C141.514 215.182 146.114 202.975 146.759 194.67C155.501 218.746 135.093 227.524 134.547 227.753H134.573C145.39 227.233 156.77 217.097 155.313 202.886C155.034 199.502 153.813 196.264 151.791 193.537C149.768 190.81 147.023 188.703 143.866 187.453C143.687 187.371 143.5 187.307 143.309 187.261C131.825 184.206 130.748 189.8 130.748 189.8C130.748 189.8 125.748 183.473 135.312 178.914C137.754 178.117 140.284 177.615 142.846 177.421C144.027 179.471 146.4 178.462 146.4 178.462L147.774 176.38C148.33 175.636 149.855 176.157 149.855 176.157C148.637 175.204 147.675 175.522 147.675 175.522C147.576 175.548 147.394 175.61 147.154 175.699C147.154 175.699 140.598 176.625 135.587 178.363C136.441 176.734 139.537 172.161 147.966 171.271C159.497 170.053 169.695 178.592 171.485 191.746C171.485 191.803 171.485 191.845 171.485 191.897C170.752 183.646 166.955 175.97 160.843 170.379C154.732 164.788 146.748 161.689 138.465 161.691Z" fill="#2470FF"/>
</g>
<mask id="mask2_1115_1685" style="mask-type:luminance" maskUnits="userSpaceOnUse" x="96" y="154" width="85" height="95">
<path d="M180.628 154.401H96.0471V248.108H180.628V154.401Z" fill="white"/>
</mask>
<g mask="url(#mask2_1115_1685)">
<path d="M175.632 203.375C172.941 207.823 169.868 212.03 166.449 215.946C166.022 218.075 165.473 220.177 164.804 222.242C164.544 222.981 162.697 226.982 151.572 233.606C147.269 236.139 142.829 238.432 138.272 240.475C133.716 238.432 129.276 236.139 124.973 233.606C113.848 226.982 112.001 222.981 111.746 222.242C111.076 220.177 110.525 218.075 110.096 215.946C106.678 212.028 103.606 207.822 100.912 203.375L100.611 202.854C102.042 211.898 103.634 220.327 105.117 224.552C108.868 235.277 133.818 246.235 137.981 248.009L138.278 248.139L138.574 248.009C142.737 246.24 167.687 235.277 171.433 224.563C172.916 220.338 174.509 211.908 175.945 202.865C175.841 203.037 175.737 203.203 175.638 203.385L175.632 203.375Z" fill="#2470FF"/>
<path d="M104.789 201.075C105.829 202.766 106.99 204.566 108.306 206.408C106.407 195.211 104.591 181.338 103.535 172.524C114.077 166.603 130.384 163.017 138.272 161.54C146.161 163.017 162.468 166.603 173.015 172.524C171.974 181.338 170.138 195.211 168.244 206.408C169.555 204.566 170.726 202.766 171.756 201.075C174.087 197.244 176.156 193.26 177.948 189.149C179.462 178.102 180.503 168.96 180.503 168.96C169.149 160.827 148.715 156.3 138.569 154.448L138.272 154.396L137.976 154.448C127.829 156.295 107.396 160.827 96.0471 168.96C96.0471 168.96 97.0878 178.102 98.5968 189.149C100.392 193.258 102.46 197.242 104.789 201.075Z" fill="#2470FF"/>
</g>
<mask id="mask3_1115_1685" style="mask-type:luminance" maskUnits="userSpaceOnUse" x="96" y="202" width="85" height="47">
<path d="M180.617 202.694H96.0369V248.14H180.617V202.694Z" fill="white"/>
</mask>
<g mask="url(#mask3_1115_1685)">
<path d="M175.597 203.391C172.905 207.838 169.832 212.043 166.413 215.958C165.988 218.087 165.439 220.189 164.768 222.254C164.513 222.987 162.687 226.989 151.541 233.612C147.238 236.142 142.8 238.435 138.247 240.481C133.702 238.433 129.27 236.14 124.973 233.612C113.833 226.989 111.965 222.987 111.731 222.254C111.06 220.189 110.511 218.087 110.086 215.958C106.665 212.044 103.592 207.839 100.902 203.391C100.798 203.22 100.694 203.053 100.595 202.871C102.026 211.909 103.624 220.339 105.102 224.564C108.853 235.272 133.772 246.225 137.95 247.979L138.247 248.109L138.549 247.979C142.711 246.21 167.651 235.252 171.397 224.564C172.875 220.339 174.467 211.909 175.904 202.871C175.799 203.038 175.695 203.209 175.597 203.391Z" fill="#250A7E"/>
<path d="M104.774 201.107C105.814 202.798 106.98 204.594 108.291 206.436C106.392 195.243 104.581 181.376 103.52 172.567C114.062 166.646 130.364 163.06 138.247 161.583C146.135 163.066 162.437 166.646 172.979 172.567C171.938 181.376 170.107 195.243 168.208 206.436C169.519 204.594 170.695 202.793 171.725 201.107C174.052 197.277 176.119 193.294 177.912 189.186C179.426 178.14 180.461 169.003 180.461 169.003C169.118 160.87 148.685 156.343 138.548 154.496L138.247 154.438L137.95 154.496C127.809 156.343 107.38 160.87 96.0371 169.003C96.0371 169.003 97.0778 178.14 98.5867 189.186C100.382 193.293 102.449 197.276 104.774 201.107Z" fill="#250A7E"/>
</g>
<mask id="mask4_1115_1685" style="mask-type:luminance" maskUnits="userSpaceOnUse" x="24" y="-51" width="380" height="380">
<path d="M403.592 -50.2461H24.5483V328.797H403.592V-50.2461Z" fill="white"/>
</mask>
<g mask="url(#mask4_1115_1685)">
<mask id="mask5_1115_1685" style="mask-type:luminance" maskUnits="userSpaceOnUse" x="24" y="-51" width="380" height="380">
<path d="M403.592 -50.2461H24.5483V328.797H403.592V-50.2461Z" fill="white"/>
</mask>
<g mask="url(#mask5_1115_1685)">
<mask id="mask6_1115_1685" style="mask-type:luminance" maskUnits="userSpaceOnUse" x="165" y="199" width="7" height="10">
<path d="M170.216 199.219L165.359 207.158L166.863 208.078L171.72 200.139L170.216 199.219Z" fill="white"/>
</mask>
<g mask="url(#mask6_1115_1685)">
<mask id="mask7_1115_1685" style="mask-type:luminance" maskUnits="userSpaceOnUse" x="167" y="199" width="6" height="9">
<path d="M168.848 202.231L172.781 199.161L167.937 207.138L168.848 202.231Z" fill="white"/>
</mask>
<g mask="url(#mask7_1115_1685)">
<path d="M171.272 198.232L166.428 206.212L167.94 207.13L172.784 199.15L171.272 198.232Z" fill="#2470FF"/>
</g>
</g>
</g>
</g>
<mask id="mask8_1115_1685" style="mask-type:luminance" maskUnits="userSpaceOnUse" x="24" y="-51" width="380" height="380">
<path d="M403.592 -50.2461H24.5483V328.797H403.592V-50.2461Z" fill="white"/>
</mask>
<g mask="url(#mask8_1115_1685)">
<mask id="mask9_1115_1685" style="mask-type:luminance" maskUnits="userSpaceOnUse" x="24" y="-51" width="380" height="380">
<path d="M403.592 -50.2461H24.5483V328.797H403.592V-50.2461Z" fill="white"/>
</mask>
<g mask="url(#mask9_1115_1685)">
<mask id="mask10_1115_1685" style="mask-type:luminance" maskUnits="userSpaceOnUse" x="104" y="198" width="9" height="11">
<path d="M106.923 198.567L104.222 200.406L109.485 208.135L112.186 206.296L106.923 198.567Z" fill="white"/>
</mask>
<g mask="url(#mask10_1115_1685)">
<mask id="mask11_1115_1685" style="mask-type:luminance" maskUnits="userSpaceOnUse" x="104" y="200" width="6" height="9">
<path d="M109.55 202.434L109.478 208.132L104.222 200.415L109.55 202.434Z" fill="white"/>
</mask>
<g mask="url(#mask11_1115_1685)">
<path d="M106.925 198.571L104.224 200.41L109.477 208.126L112.178 206.287L106.925 198.571Z" fill="#2470FF"/>
</g>
</g>
</g>
</g>
</g>
<path d="M224.96 170.459V176.474H217.712V197.626H210.157V176.474H202.981V170.459H224.96Z" fill="#2470FF"/>
<path d="M238.536 197.626L233.135 187.61H232.328V197.626H224.768V170.46H236.683C238.597 170.402 240.498 170.792 242.235 171.599C243.664 172.276 244.86 173.363 245.669 174.721C246.448 176.073 246.847 177.61 246.825 179.17C246.856 180.917 246.321 182.627 245.3 184.046C244.19 185.51 242.622 186.562 240.846 187.032L246.975 197.626H238.536ZM232.328 182.443H236.064C236.901 182.506 237.73 182.246 238.38 181.714C238.649 181.434 238.856 181.1 238.989 180.734C239.122 180.369 239.176 179.979 239.15 179.591C239.172 179.208 239.114 178.825 238.977 178.466C238.841 178.107 238.63 177.782 238.359 177.51C237.721 176.971 236.897 176.702 236.064 176.761H232.328V182.443Z" fill="#2470FF"/>
<path d="M264.422 193.192H254.807L253.339 197.626H245.399L255.285 170.459H264.001L273.887 197.626H265.911L264.422 193.192ZM262.534 187.417L259.604 178.628L256.711 187.417H262.534Z" fill="#2470FF"/>
<path d="M274.1 176.839C275.184 174.782 276.839 173.081 278.867 171.943C281.036 170.746 283.482 170.141 285.959 170.189C289.351 170.189 292.205 171.096 294.518 172.91C296.851 174.75 298.44 177.37 298.993 180.289H290.855C290.423 179.325 289.72 178.507 288.831 177.937C287.934 177.385 286.897 177.104 285.844 177.125C285.053 177.098 284.267 177.252 283.545 177.577C282.823 177.902 282.186 178.388 281.682 178.998C280.641 180.24 280.121 181.902 280.121 183.983C280.121 186.065 280.641 187.742 281.682 189.015C282.188 189.622 282.826 190.106 283.547 190.429C284.269 190.753 285.054 190.908 285.844 190.883C286.897 190.904 287.934 190.623 288.831 190.071C289.72 189.503 290.423 188.687 290.855 187.724H298.993C298.439 190.643 296.85 193.262 294.518 195.103C292.208 196.914 289.355 197.819 285.959 197.819C283.481 197.87 281.035 197.265 278.867 196.065C276.839 194.929 275.184 193.23 274.1 191.174C272.998 188.946 272.425 186.493 272.425 184.007C272.425 181.52 272.998 179.068 274.1 176.839Z" fill="#2470FF"/>
<path d="M315.649 197.626L307.126 185.72V197.626H299.571V170.459H307.126V182.172L315.571 170.459H324.287L314.302 183.639L324.781 197.626H315.649Z" fill="#2470FF"/>
<path d="M205.396 215.406C206.496 213.371 208.136 211.678 210.136 210.515C212.173 209.336 214.49 208.731 216.843 208.761C219.577 208.684 222.27 209.429 224.575 210.9C226.746 212.352 228.389 214.468 229.258 216.931H226.1C225.39 215.177 224.158 213.684 222.572 212.654C220.9 211.669 218.999 211.137 217.059 211.109C215.118 211.082 213.204 211.56 211.504 212.497C209.907 213.44 208.615 214.824 207.784 216.483C206.854 218.355 206.391 220.424 206.436 222.514C206.388 224.597 206.851 226.66 207.784 228.524C208.619 230.176 209.91 231.554 211.504 232.494C213.204 233.428 215.117 233.906 217.056 233.882C218.995 233.859 220.895 233.334 222.572 232.359C224.152 231.346 225.384 229.873 226.1 228.139H229.258C228.387 230.585 226.743 232.682 224.575 234.112C222.271 235.567 219.587 236.304 216.864 236.23C214.511 236.261 212.193 235.655 210.157 234.476C208.16 233.318 206.52 231.633 205.417 229.606C204.275 227.414 203.678 224.978 203.678 222.506C203.678 220.034 204.275 217.599 205.417 215.406H205.396Z" fill="#250A7E"/>
<path d="M254.593 209.068L245.955 225.532V236.011H243.255V225.532L234.544 209.079H237.588L244.608 223.065L251.585 209.079L254.593 209.068Z" fill="#250A7E"/>
<path d="M277.15 224.403C278.183 225.63 278.737 227.19 278.711 228.794C278.725 230.095 278.363 231.372 277.67 232.473C276.949 233.613 275.911 234.517 274.683 235.075C273.214 235.739 271.613 236.063 270 236.022H260.686V209.068H269.745C272.472 209.068 274.553 209.698 275.989 210.957C276.685 211.564 277.238 212.317 277.608 213.163C277.977 214.008 278.155 214.926 278.128 215.848C278.195 217.323 277.715 218.77 276.78 219.912C275.863 220.965 274.656 221.723 273.31 222.092C274.824 222.38 276.186 223.2 277.15 224.403ZM263.382 220.974H269.667C271.492 220.974 272.9 220.543 273.892 219.683C274.39 219.237 274.781 218.686 275.038 218.069C275.295 217.452 275.41 216.786 275.375 216.119C275.408 215.46 275.292 214.803 275.035 214.196C274.779 213.588 274.388 213.047 273.892 212.612C272.904 211.765 271.457 211.342 269.553 211.342H263.382V220.974ZM274.392 232.338C274.937 231.869 275.369 231.281 275.653 230.62C275.937 229.959 276.066 229.242 276.031 228.524C276.06 227.79 275.92 227.059 275.623 226.388C275.325 225.717 274.877 225.123 274.314 224.652C273.169 223.692 271.634 223.209 269.709 223.206H263.382V233.727H269.823C271.773 233.727 273.296 233.264 274.392 232.338Z" fill="#250A7E"/>
<path d="M288.561 211.264V221.322H298.765V223.554H288.561V233.763H299.936V236.001H285.886V209.026H299.936V211.264H288.561Z" fill="#250A7E"/>
<path d="M321.758 236.001L315.087 224.751H310.118V236.001H307.418V209.068H315.514C318.522 209.068 320.802 209.788 322.357 211.228C323.13 211.948 323.739 212.826 324.143 213.803C324.546 214.78 324.734 215.833 324.693 216.889C324.743 218.702 324.147 220.474 323.012 221.889C321.892 223.277 320.241 224.17 318.059 224.569L325 236.017L321.758 236.001ZM310.118 222.555H315.551C317.656 222.555 319.245 222.035 320.317 220.994C320.855 220.457 321.275 219.812 321.55 219.102C321.825 218.393 321.949 217.634 321.914 216.873C321.914 215.099 321.394 213.751 320.353 212.768C319.313 211.785 317.705 211.327 315.493 211.327H310.118V222.555Z" fill="#250A7E"/>
<defs>
<radialGradient id="paint0_radial_1115_1685" cx="0" cy="0" r="1" gradientUnits="userSpaceOnUse" gradientTransform="translate(207.72 187.673) rotate(89.8593) scale(253.328 239.36)">
<stop stop-color="white"/>
<stop offset="0.9999" stop-color="#C5D8FF"/>
</radialGradient>
<radialGradient id="paint1_radial_1115_1685" cx="0" cy="0" r="1" gradientUnits="userSpaceOnUse" gradientTransform="translate(207.79 93.3949) rotate(90) scale(200.053 187.793)">
<stop stop-color="white"/>
<stop offset="0.9999" stop-color="#BDD2FF"/>
</radialGradient>
</defs>
</svg>
